<svg
   width="999938.44mm"
   height="647491.19mm"
   viewBox="0 0 999938.44 647491.19"
   version="1.1"
   id="svg784"
   xmlns="http://www.w3.org/2000/svg"
   xmlns:svg="http://www.w3.org/2000/svg">
  <defs
     id="defs781">
    <rect
       x="33.295074"
       y="209.28333"
       width="404.29733"
       height="418.56665"
       id="rect790" />
  </defs>
  <g
     id="layer1"
     transform="translate(-61.596712,-60.093359)">
    <g
       id="g863"
       transform="matrix(30172.677,0,0,30172.677,-1857415.3,-1814634.4)">
      <g
         aria-label="R"
         transform="matrix(-0.26458333,0,0,0.26458333,90.485132,1.024938)"
         id="text788"
         style="font-weight:bold;font-size:121.055px;font-family:'El Messiri';-inkscape-font-specification:'El Messiri, Bold';white-space:pre;shape-inside:url(#rect790)">
        <path
           d="m 100.96467,304.5476 q -4.236928,0 -8.110688,-1.69477 -3.87376,-1.69477 -7.626465,-5.44747 -3.63165,-3.87376 -7.626465,-10.41073 l -12.1055,-20.21619 h -4.8422 v 36.55861 H 44.795147 V 239.1779 q 0,-5.44747 -1.573715,-8.71596 -1.45266,-3.38954 -6.900135,-3.38954 h -1.21055 v -3.63165 h 33.41118 q 3.268485,0 7.50541,0.48422 4.35798,0.36317 8.71596,1.69477 4.35798,1.21055 8.110685,3.63165 3.752705,2.4211 6.05275,6.41592 2.300048,3.87376 2.300048,9.6844 0,6.41591 -2.905323,10.53178 -2.784265,3.99482 -7.2633,6.29486 -4.479035,2.30005 -9.44229,3.63165 l 12.710775,21.18463 q 4.60009,7.74752 8.473848,10.28967 3.87376,2.54216 6.53697,3.02638 v 3.02637 q -0.96844,0.48422 -3.51059,0.84739 -2.4211,0.36316 -4.8422,0.36316 z M 60.653352,261.93624 h 7.2633 q 2.90532,0 5.81064,-0.84738 2.90532,-0.84739 5.205365,-2.78427 2.4211,-1.93688 3.87376,-5.20536 1.45266,-3.26849 1.45266,-7.98963 0,-4.72115 -1.45266,-7.86858 -1.331605,-3.26848 -3.752705,-5.20536 -2.300045,-2.05794 -5.205365,-2.90532 -2.784265,-0.84739 -5.689585,-0.84739 -0.96844,0 -2.90532,0.12106 -1.815825,0.12105 -4.60009,0.72633 z"
           id="path1044" />
      </g>
      <g
         aria-label="D
"
         id="text796"
         style="font-weight:bold;font-size:32.0291px;font-family:'El Messiri';-inkscape-font-specification:'El Messiri, Bold';stroke-width:0.264583">
        <path
           d="M 75.326517,81.33474 V 64.359317 q 0,-1.441309 -0.416378,-2.306095 -0.38435,-0.896814 -1.825659,-0.896814 h -0.320291 v -0.960873 h 8.711915 q 6.597994,0 9.896991,2.786531 3.331026,2.786532 3.331026,7.654955 0,3.170881 -1.441309,5.573063 -1.40928,2.402182 -4.163783,3.779434 -2.754502,1.345222 -6.790169,1.345222 z m 6.886256,-1.281164 q 2.242037,0 3.971608,-1.121019 1.729572,-1.121018 2.722474,-3.20291 0.992902,-2.081891 0.992902,-4.96451 0,-2.81856 -0.992902,-4.900452 -0.960873,-2.081891 -2.722474,-3.234939 -1.729571,-1.153047 -4.035666,-1.153047 -0.70464,0 -1.217106,0.03203 -0.512466,0.03203 -1.441309,0.192174 v 18.12847 q 0.70464,0.128116 1.088989,0.192175 0.416378,0.03203 0.768698,0.03203 0.35232,0 0.864786,0 z"
           id="path1047" />
      </g>
    </g>
  </g>
</svg>
