<svg width="36720.714" height="28040" viewBox="0 0 36720.714 28040" xmlns="http://www.w3.org/2000/svg"><g id="svgGroup" stroke-linecap="round" fill-rule="evenodd" font-size="9pt" stroke="#000" stroke-width="0.25mm" fill="#000" style="stroke:#000;stroke-width:0.25mm;fill:#000"><path d="M 21400 28040 L 6880 28040 L 6880 27640 L 7400 27640 Q 8400 27640 9140 26940 Q 9880 26240 9960 25240 L 9960 1840 A 20149.439 20149.439 0 0 0 7504.473 2156.914 Q 4861.528 2678.009 3346.039 3898.903 A 6031.128 6031.128 0 0 0 3320 3920 Q 2325.43 4693.555 1720.964 5501.032 A 5959.372 5959.372 0 0 0 1620 5640 Q 1046.318 6454.258 489.76 7576.736 A 21159.286 21159.286 0 0 0 400 7760 L 0 7600 Q 960 3600 4020 1820 A 11833.784 11833.784 0 0 1 6852.832 660.918 Q 8232.361 282.599 9872.887 120.535 A 26170.297 26170.297 0 0 1 12240 0 L 14720 0 Q 16520 0 21400 40 A 21970.71 21970.71 0 0 1 26059.418 559.345 Q 29944.531 1449.453 32600 3860 A 12325.05 12325.05 0 0 1 36519.315 11341.006 A 17725.204 17725.204 0 0 1 36720 14060 Q 36720 20520 32600 24280 A 13815.237 13815.237 0 0 1 26571.968 27443.091 Q 24220.938 28040 21400 28040 Z M 20920 1800 L 15960 1800 L 15960 26360 L 20920 26360 A 8857.204 8857.204 0 0 0 24214.448 25769.111 Q 26222.809 24972.027 27654.689 23099.71 A 10051.848 10051.848 0 0 0 27700 23040 A 11541.548 11541.548 0 0 0 29555.316 19200.168 Q 29998.536 17635.56 30137.043 15783.303 A 23388.023 23388.023 0 0 0 30200 14040 Q 30200 8360 27700 5080 A 8195.919 8195.919 0 0 0 24722.552 2594.575 Q 23170.648 1849.661 21256.79 1803.104 A 10559.062 10559.062 0 0 0 21000 1800 L 20920 1800 Z" vector-effect="non-scaling-stroke"/></g></svg>