<svg width="41600" height="36360.492" viewBox="0 0 41600 36360.492" xmlns="http://www.w3.org/2000/svg"><g id="svgGroup" stroke-linecap="round" fill-rule="evenodd" font-size="9pt" stroke="#000" stroke-width="0.25mm" fill="#000" style="stroke:#000;stroke-width:0.25mm;fill:#000"><path d="M 41600 34400.331 L 41600 34800.331 Q 38480 36360.331 34960 36360.331 Q 31840 36360.331 29280 35400.331 A 17504.304 17504.304 0 0 1 22758.654 31069.755 A 24329.962 24329.962 0 0 1 19880 27440.331 Q 18880 26000.331 16160 21920.331 Q 13522.551 17964.158 12690.328 16791.041 A 26859.564 26859.564 0 0 0 12640 16720.331 Q 11418.254 14800.445 10622.984 14403.684 A 1043.63 1043.63 0 0 0 10400 14320.331 L 10400 13920.331 L 10500 13920.331 L 10640 13920.331 L 10800 13920.331 L 11000 13920.331 L 11200 13920.331 Q 13240 13920.331 14960 13000.331 Q 17560 11560.331 17560 7680.331 A 8069.972 8069.972 0 0 0 17379.434 5918.916 Q 17022.5 4322.987 15960 3300.331 Q 14360 1760.331 12120 1760.331 L 9080 1760.331 L 9080 25080.331 A 2389.034 2389.034 0 0 0 9804.792 26825.479 A 2987.061 2987.061 0 0 0 9840 26860.331 Q 10600 27600.331 11640 27600.331 L 12160 27600.331 L 12160 28000.331 L 0 28000.331 L 0 27600.331 L 520 27600.331 Q 1520 27600.331 2280 26880.331 A 2470.242 2470.242 0 0 0 3079.921 25122.362 A 2960.327 2960.327 0 0 0 3080 25120.331 L 3080 2920.331 Q 3040 1880.331 2300 1140.331 A 2424.189 2424.189 0 0 0 552.427 400.512 A 2903.679 2903.679 0 0 0 520 400.331 L 0 400.331 L 0 0.331 L 13720 0.331 A 18140.579 18140.579 0 0 1 16839.273 251.407 Q 18508.242 543.17 19843.913 1173.976 A 8797.24 8797.24 0 0 1 21720 2360.331 Q 23960 4200.331 23960 7560.331 A 8429.688 8429.688 0 0 1 23586.244 10126.807 A 6841.36 6841.36 0 0 1 21780 13020.331 A 7756.158 7756.158 0 0 1 19638.585 14510.095 A 6722.156 6722.156 0 0 1 16800 15120.331 A 3313.928 3313.928 0 0 1 16517.344 15107.675 A 4240.401 4240.401 0 0 1 16280 15080.331 Q 17920 15960.331 19020 17040.331 Q 20120 18120.331 20940 19080.331 Q 21760 20040.331 22340 20780.331 Q 22920 21520.331 23880 22740.331 Q 24840 23960.331 25880 25280.331 Q 26920 26600.331 28180 27980.331 A 25010.53 25010.53 0 0 0 30884.023 30522.694 A 27382.251 27382.251 0 0 0 30980 30600.331 A 18342.139 18342.139 0 0 0 33125.859 32097.362 A 15837.883 15837.883 0 0 0 34120 32640.331 Q 37520 34360.331 41600 34400.331 Z" vector-effect="non-scaling-stroke"/></g></svg>