<svg xmlns:dc="http://purl.org/dc/elements/1.1/" xmlns:cc="http://web.resource.org/cc/" xmlns:rdf="http://www.w3.org/1999/02/22-rdf-syntax-ns#" xmlns:svg="http://www.w3.org/2000/svg" xmlns="http://www.w3.org/2000/svg" xmlns:sodipodi="http://sodipodi.sourceforge.net/DTD/sodipodi-0.dtd" xmlns:inkscape="http://www.inkscape.org/namespaces/inkscape" version="1.0" width="601" height="601" viewBox="0 0 600 599.99902" id="Layer_1" xml:space="preserve" sodipodi:version="0.32" inkscape:version="0.45" sodipodi:docname="I-69.svg" sodipodi:docbase="C:\Documents and Settings\ltljltlj\Desktop\Signs\Interstate Shields" inkscape:output_extension="org.inkscape.output.svg.inkscape" sodipodi:modified="true"><metadata id="metadata36"><rdf:RDF><cc:Work rdf:about=""><dc:format>image/svg+xml</dc:format><dc:type rdf:resource="http://purl.org/dc/dcmitype/StillImage"/></cc:Work></rdf:RDF></metadata><sodipodi:namedview inkscape:window-height="968" inkscape:window-width="1280" inkscape:pageshadow="2" inkscape:pageopacity="0.0" guidetolerance="10.0" gridtolerance="10.0" objecttolerance="10.0" borderopacity="1.0" bordercolor="#666666" pagecolor="#ffffff" id="base" width="601px" height="601px" inkscape:zoom="1.2845255" inkscape:cx="300.49997" inkscape:cy="299.49944" inkscape:window-x="-4" inkscape:window-y="-4" inkscape:current-layer="Layer_1"/><defs id="defs1659">
	
	
	
	
</defs>
<g transform="matrix(0.9983361,0,0,0.9983377,0.4991681,0.4986859)" style="fill:#ffffff;fill-opacity:1;stroke:#000000;stroke-width:0.99999928;stroke-miterlimit:4;stroke-dasharray:none;stroke-opacity:1" id="g1600">
		<path id="path1602" style="fill:#ffffff;fill-opacity:0;stroke:#000000;stroke-width:0.99999928;stroke-miterlimit:4;stroke-dasharray:none;stroke-opacity:1" d="M 80.75293,0 C 115.42871,10.583496 152.23779,16.276856 190.37695,16.276856 C 228.51563,16.276856 265.32422,10.583496 300,0.0004883 C 334.67578,10.583496 371.48438,16.276856 409.62305,16.276856 C 447.76172,16.276856 484.57129,10.583496 519.24707,0 C 569.8125,63.908203 600,144.67822 600,232.5 C 600,413.92383 471.16992,565.25391 300,599.99902 C 128.83008,565.25391 0,413.92383 0,232.5 C 0,144.67822 30.187988,63.907715 80.75293,0 z "/>
		
			<path id="path1604" style="fill:#ffffff;fill-opacity:0;stroke:#000000;stroke-width:0.99999928;stroke-linecap:round;stroke-linejoin:round;stroke-miterlimit:4;stroke-dasharray:none;stroke-opacity:1" d="M 80.75293,0 C 115.42871,10.583496 152.23779,16.276856 190.37695,16.276856 C 228.51563,16.276856 265.32422,10.583496 300,0.0004883 C 334.67578,10.583496 371.48438,16.276856 409.62305,16.276856 C 447.76172,16.276856 484.57129,10.583496 519.24707,0 C 569.8125,63.908203 600,144.67822 600,232.5 C 600,413.92383 471.16992,565.25391 300,599.99902 C 128.83008,565.25391 0,413.92383 0,232.5 C 0,144.67822 30.187988,63.907715 80.75293,0 z "/>
	</g><g style="fill:#003f87;fill-opacity:1;stroke:none;stroke-opacity:1" transform="matrix(1.0070935,0,0,1.0102847,-2.1280324,-3.66885)" id="g1606">
		<path id="path1608" style="fill:#061B4A;fill-opacity:1;stroke:none;stroke-opacity:1" d="M 15,232.5 C 15,200.521 19.169434,169.51611 26.994629,139.99902 L 573.00586,139.99902 C 580.83008,169.51611 585,200.521 585,232.5 C 585,405.60547 462.82617,550.17188 300,584.67676 C 137.17432,550.17188 15,405.60547 15,232.5 z "/>
	</g><g style="fill:#FFB70B;fill-opacity:1;stroke:none;stroke-opacity:1" transform="matrix(1.0125461,0,0,1.0271486,-3.7638021,-3.1017482)" id="g1610">
		<path id="path1612" style="fill:#FFB70B;fill-opacity:1;stroke:none;stroke-opacity:1" d="M 31.324219,124.99902 C 43.579102,85.77832 62.362793,49.44043 86.402832,17.259766 C 119.50439,26.392578 154.37061,31.272461 190.37695,31.272461 C 228.4375,31.272461 265.22461,25.820801 300,15.654785 C 334.77539,25.820801 371.5625,31.272461 409.62305,31.272461 C 445.62891,31.272461 480.49609,26.392578 513.59766,17.259766 C 537.63672,49.44043 556.4209,85.77832 568.67578,124.99902 L 31.324219,124.99902 L 31.324219,124.99902 z "/>
	</g>




<path style="font-size:373.12530518px;font-style:normal;font-variant:normal;font-weight:normal;font-stretch:normal;text-align:center;line-height:125%;writing-mode:lr-tb;text-anchor:middle;fill:#FFB70B;fill-opacity:1;font-family:Roadgeek 2005 Series D" d="M 274.89426,230.29886 C 272.65838,233.02739 270.60838,235.50939 268.74423,237.74489 C 266.87971,239.9808 265.14043,242.21649 263.52637,244.452 C 261.91195,246.6879 260.23708,249.04674 258.50176,251.52857 C 256.76609,254.01076 254.90176,256.86601 252.90875,260.09433 C 241.73776,278.47274 232.2418,297.84376 224.42084,318.20747 C 216.5996,338.5714 210.57464,358.81019 206.3459,378.92386 C 205.60308,384.13803 204.86038,389.16646 204.1178,394.00917 C 203.37498,398.85197 202.81606,403.69473 202.44102,408.53745 C 202.06576,413.38024 201.75505,418.34803 201.50886,423.44087 C 201.26244,428.53374 201.13929,434.18362 201.1394,440.39054 L 160.90846,440.39054 C 161.15849,425.98353 162.02811,412.07671 163.51739,398.67005 C 165.0065,385.26346 167.17776,372.10313 170.03119,359.18903 C 172.88444,346.27509 176.54679,333.42361 181.01824,320.63453 C 185.48951,307.84568 190.82862,294.86914 197.0356,281.70486 C 201.25676,272.26961 205.85128,263.0805 210.81917,254.13752 C 215.7868,245.19489 220.50636,237.24868 224.97787,230.29886 L 105.77421,230.29886 L 105.77421,190.80649 L 274.89426,190.80649 L 274.89426,230.29886 L 274.89426,230.29886 z M 494.22625,315.96797 C 494.22605,335.8393 491.86722,354.83898 487.14974,372.96703 C 482.43188,391.09522 475.72672,405.74853 467.03427,416.92701 C 453.12739,435.54777 433.01383,444.85814 406.69352,444.85814 C 389.05805,444.85814 374.5299,441.25829 363.10905,434.05857 C 351.68805,426.85886 342.25272,415.5591 334.80302,400.15924 C 329.5889,389.48097 325.36765,376.50633 322.13919,361.23528 C 318.91069,345.96437 317.29644,330.87529 317.29646,315.96797 C 317.29644,295.36175 319.7178,276.24272 324.56054,258.61082 C 329.40323,240.97927 336.04585,226.20281 344.48845,214.28136 C 351.93814,204.84618 360.81645,197.83025 371.1234,193.23354 C 381.4302,188.63735 393.78329,186.33912 408.18273,186.33886 C 424.07489,186.33912 437.60834,189.94089 448.78313,197.14414 C 459.95759,204.34788 469.51987,215.64575 477.46999,231.03777 C 482.68385,242.21649 486.78009,255.25555 489.75866,270.155 C 492.73685,285.05479 494.22605,300.32576 494.22625,315.96797 L 494.22625,315.96797 z M 454.74558,315.96797 C 454.74542,301.81876 453.50443,288.72096 451.0226,276.67454 C 448.54046,264.62844 444.81368,254.38401 439.84228,245.9412 C 435.87096,239.4844 431.34086,234.76668 426.25197,231.78806 C 421.16282,228.80986 414.89344,227.07056 407.44381,226.57016 C 397.75826,226.07777 389.68707,228.31346 383.23021,233.27727 C 376.77317,238.24149 371.43405,246.31275 367.21286,257.49107 C 363.9843,264.94106 361.56295,273.9426 359.94877,284.4957 C 358.33447,295.04913 357.52735,305.53987 357.52741,315.96797 C 357.52735,329.38229 358.76835,342.29821 361.25041,354.71574 C 363.73231,367.13343 367.45529,377.31346 372.41935,385.25582 C 376.39802,391.71289 381.11758,396.55563 386.57805,399.7841 C 392.03833,403.01263 398.74348,404.6269 406.69352,404.62686 C 415.87866,404.6269 423.51407,402.14489 429.59982,397.18084 C 435.68528,392.21686 440.83872,384.14561 445.06014,372.96703 C 446.30288,369.7386 447.54576,365.82801 448.78881,361.23528 C 450.03154,356.64269 451.08686,351.79994 451.95476,346.70699 C 452.82235,341.61424 453.50443,336.46076 454.00099,331.24653 C 454.49721,326.03254 454.74542,320.93968 454.74558,315.96797 L 454.74558,315.96797 z " id="text5085"/>
<path style="font-size:93.21589661px;font-style:normal;font-variant:normal;font-weight:normal;font-stretch:normal;text-align:center;line-height:125%;writing-mode:lr-tb;text-anchor:middle;fill:#061B4A;fill-opacity:1;font-family:Roadgeek 2005 Series C" d="M 108.86859,112.81165 L 108.86859,50.416161 L 117.60967,50.416161 L 117.60967,112.81165 L 108.86859,112.81165 z M 159.56965,112.81165 L 140.31942,70.997717 L 140.31942,112.81165 L 131.39104,112.81165 L 131.39104,50.416161 L 140.31942,50.416161 L 157.42977,87.853449 L 157.42977,50.416161 L 166.35816,50.416161 L 166.35816,112.81165 L 159.56965,112.81165 z M 195.41654,58.706192 L 195.41654,112.81165 L 186.39735,112.81165 L 186.39735,58.706192 L 175.05098,58.706192 L 175.05098,50.416161 L 206.7629,50.416161 L 206.7629,58.706192 L 195.41654,58.706192 z M 215.30532,112.81165 L 215.30532,50.416161 L 244.59927,50.416161 L 244.59927,59.172274 L 224.2337,59.172274 L 224.2337,74.908269 L 237.16084,74.908269 L 237.16084,83.476813 L 224.2337,83.476813 L 224.2337,104.05837 L 247.01726,104.05837 L 247.01726,112.81165 L 215.30532,112.81165 z M 283.20473,112.81165 L 274.92624,83.476813 L 266.37247,83.476813 L 266.37247,112.81165 L 257.4441,112.81165 L 257.4441,50.416161 L 276.04442,50.416161 C 278.46238,50.416224 280.67885,50.819784 282.69389,51.62684 C 284.70884,52.434021 286.44475,53.551862 287.90163,54.980368 C 289.35844,56.408988 290.47425,58.162956 291.24907,60.242277 C 292.02379,62.321703 292.41119,64.60333 292.41123,67.087165 C 292.41119,70.812085 291.66716,73.978511 290.17914,76.586455 C 288.69102,79.19447 286.45894,81.056433 283.48285,82.172347 L 292.41123,112.81165 L 283.20473,112.81165 z M 283.67015,67.087165 C 283.67012,64.665853 282.92609,62.741367 281.43805,61.313699 C 279.94996,59.886136 277.99694,59.172328 275.579,59.172274 L 266.37247,59.172274 L 266.37247,74.908269 L 275.579,74.908269 C 278.18236,74.908307 280.18173,74.240918 281.57712,72.906101 C 282.97244,71.571363 283.67012,69.631721 283.67015,67.087165 L 283.67015,67.087165 z M 334.56419,95.768339 C 334.56416,98.31476 334.11481,100.6897 333.21614,102.89316 C 332.31739,105.09665 331.07766,107.00549 329.49693,108.61973 C 327.91613,110.23398 326.08704,111.52233 324.00964,112.48482 C 321.93219,113.4473 319.68449,113.92853 317.26652,113.92853 C 314.53824,113.92853 312.08951,113.40088 309.92033,112.34556 C 307.75114,111.29024 305.92252,109.86263 304.43447,108.0627 C 302.9464,106.26279 301.79937,104.18295 300.99337,101.82315 C 300.18737,99.463388 299.78437,97.011244 299.78438,94.466716 L 308.52546,94.466716 C 308.52544,95.770251 308.69573,97.058136 309.0363,98.330376 C 309.37684,99.602646 309.90376,100.75127 310.61707,101.77627 C 311.33035,102.80129 312.22952,103.62404 313.3146,104.24452 C 314.39964,104.86503 315.71694,105.17527 317.26652,105.17526 C 318.44523,105.17527 319.57711,104.92707 320.66221,104.43067 C 321.74724,103.93429 322.67716,103.25127 323.45197,102.38161 C 324.22672,101.51197 324.84634,100.50307 325.31087,99.354907 C 325.77533,98.206766 326.00757,97.011244 326.0076,95.768339 C 326.00757,93.968443 325.63579,92.37031 324.89226,90.973934 C 324.14867,89.577602 322.84697,88.165144 320.98716,86.736554 C 320.67685,86.425859 320.55292,86.254867 320.61538,86.223579 C 320.6778,86.192343 320.49191,86.021825 320.05771,85.712023 C 319.62347,85.402277 318.70868,84.796937 317.31335,83.896004 C 315.91798,82.995129 313.63953,81.459044 310.478,79.287747 C 307.93703,77.548497 306.03083,75.514594 304.75942,73.186035 C 303.48797,70.857556 302.85226,68.296942 302.85226,65.504186 C 302.85226,63.268552 303.25526,61.173074 304.06128,59.217745 C 304.86725,57.262525 305.99866,55.539819 307.45551,54.049621 C 308.91235,52.559541 310.60192,51.395283 312.52421,50.556838 C 314.44647,49.718521 316.52295,49.29933 318.75365,49.299267 C 320.98618,49.29933 323.04799,49.70289 324.93908,50.509945 C 326.83013,51.317127 328.47286,52.434967 329.86729,53.863473 C 331.26166,55.292095 332.37747,56.999643 333.21474,58.986126 C 334.0519,60.972715 334.50173,63.1454 334.56419,65.504186 L 326.0076,65.504186 C 325.88459,63.331075 325.14102,61.592738 323.77692,60.289169 C 322.41275,58.985706 320.73833,58.333948 318.75365,58.333894 C 316.70836,58.333948 314.97291,59.016967 313.54731,60.382954 C 312.12167,61.749046 311.40886,63.456122 311.40887,65.504186 C 311.40886,67.055948 311.81186,68.359465 312.61787,69.41474 C 313.42384,70.4701 314.97339,71.649518 317.26652,72.952995 C 323.28119,76.429707 327.6678,79.968432 330.42638,83.569177 C 333.1849,87.16998 334.56416,91.236364 334.56419,95.768339 L 334.56419,95.768339 z M 360.52064,58.706192 L 360.52064,112.81165 L 351.50144,112.81165 L 351.50144,58.706192 L 340.15508,58.706192 L 340.15508,50.416161 L 371.867,50.416161 L 371.867,58.706192 L 360.52064,58.706192 z M 406.44816,112.81165 L 402.07763,95.768339 L 388.68506,95.768339 L 384.59548,112.81165 L 375.57345,112.81165 L 391.10305,50.416161 L 399.84695,50.416161 L 415.37654,112.81165 L 406.44816,112.81165 z M 395.2891,69.042441 L 390.91856,87.015068 L 399.84695,87.015068 L 395.2891,69.042441 z M 439.53084,58.706192 L 439.53084,112.81165 L 430.51165,112.81165 L 430.51165,58.706192 L 419.16529,58.706192 L 419.16529,50.416161 L 450.87721,50.416161 L 450.87721,58.706192 L 439.53084,58.706192 z M 459.41964,112.81165 L 459.41964,50.416161 L 488.71358,50.416161 L 488.71358,59.172274 L 468.34802,59.172274 L 468.34802,74.908269 L 481.27515,74.908269 L 481.27515,83.476813 L 468.34802,83.476813 L 468.34802,104.05837 L 491.13157,104.05837 L 491.13157,112.81165 L 459.41964,112.81165 z " id="text6060"/>
</svg>