<!-- Created with Inkscape (http://www.inkscape.org/) -->
<svg
   xmlns:dc="http://purl.org/dc/elements/1.1/"
   xmlns:cc="http://web.resource.org/cc/"
   xmlns:rdf="http://www.w3.org/1999/02/22-rdf-syntax-ns#"
   xmlns:svg="http://www.w3.org/2000/svg"
   xmlns="http://www.w3.org/2000/svg"
   xmlns:sodipodi="http://sodipodi.sourceforge.net/DTD/sodipodi-0.dtd"
   xmlns:inkscape="http://www.inkscape.org/namespaces/inkscape"
   version="1.0"
   width="601"
   height="601"
   viewBox="0 0 600 599.99902"
   id="Layer_1"
   xml:space="preserve"
   sodipodi:version="0.32"
   inkscape:version="0.45"
   sodipodi:docname="I-94.svg"
   sodipodi:docbase="C:\Documents and Settings\ltljltlj\Desktop\Signs\Interstate Shields"
   inkscape:output_extension="org.inkscape.output.svg.inkscape"
   sodipodi:modified="true"><metadata
   id="metadata36"><rdf:RDF><cc:Work
       rdf:about=""><dc:format>image/svg+xml</dc:format><dc:type
         rdf:resource="http://purl.org/dc/dcmitype/StillImage" /></cc:Work></rdf:RDF></metadata><sodipodi:namedview
   inkscape:window-height="968"
   inkscape:window-width="1280"
   inkscape:pageshadow="2"
   inkscape:pageopacity="0.0"
   guidetolerance="10.0"
   gridtolerance="10.0"
   objecttolerance="10.0"
   borderopacity="1.0"
   bordercolor="#666666"
   id="base"
   width="601px"
   height="601px"
   inkscape:zoom="1.2845255"
   inkscape:cx="300.49997"
   inkscape:cy="299.49944"
   inkscape:window-x="-4"
   inkscape:window-y="-4"
   inkscape:current-layer="Layer_1" /><defs
   id="defs1659">
	
	
	
	
</defs>
<g
   transform="matrix(0.9983361,0,0,0.9983377,0.4991681,0.4986859)"
   style="fill:#ffffff;fill-opacity:0;stroke:#000000;stroke-width:0.99999928;stroke-miterlimit:4;stroke-dasharray:none;stroke-opacity:1"
   id="g1600">
		<path
   id="path1602"
   style="fill:#ffffff;fill-opacity:0;stroke:#341648;stroke-width:0.99999928;stroke-miterlimit:4;stroke-dasharray:none;stroke-opacity:1"
   d="M 80.75293,0 C 115.42871,10.583496 152.23779,16.276856 190.37695,16.276856 C 228.51563,16.276856 265.32422,10.583496 300,0.0004883 C 334.67578,10.583496 371.48438,16.276856 409.62305,16.276856 C 447.76172,16.276856 484.57129,10.583496 519.24707,0 C 569.8125,63.908203 600,144.67822 600,232.5 C 600,413.92383 471.16992,565.25391 300,599.99902 C 128.83008,565.25391 0,413.92383 0,232.5 C 0,144.67822 30.187988,63.907715 80.75293,0 z " />
		
			<path
   id="path1604"
   style="fill:#ffffff;fill-opacity:0;stroke:#000000;stroke-width:0.99999928;stroke-linecap:round;stroke-linejoin:round;stroke-miterlimit:4;stroke-dasharray:none;stroke-opacity:1"
   d="M 80.75293,0 C 115.42871,10.583496 152.23779,16.276856 190.37695,16.276856 C 228.51563,16.276856 265.32422,10.583496 300,0.0004883 C 334.67578,10.583496 371.48438,16.276856 409.62305,16.276856 C 447.76172,16.276856 484.57129,10.583496 519.24707,0 C 569.8125,63.908203 600,144.67822 600,232.5 C 600,413.92383 471.16992,565.25391 300,599.99902 C 128.83008,565.25391 0,413.92383 0,232.5 C 0,144.67822 30.187988,63.907715 80.75293,0 z " />
	</g><g
   style="fill:#003f87;fill-opacity:1;stroke:none;stroke-opacity:1"
   transform="matrix(1.0070935,0,0,1.0102847,-2.1280324,-3.66885)"
   id="g1606">
		<path
   id="path1608"
   style="fill:#341648;fill-opacity:1;stroke:none;stroke-opacity:1"
   d="M 15,232.5 C 15,200.521 19.169434,169.51611 26.994629,139.99902 L 573.00586,139.99902 C 580.83008,169.51611 585,200.521 585,232.5 C 585,405.60547 462.82617,550.17188 300,584.67676 C 137.17432,550.17188 15,405.60547 15,232.5 z " />
	</g><g
   style="fill:#af1e2d;fill-opacity:1;stroke:none;stroke-opacity:1"
   transform="matrix(1.0125461,0,0,1.0271486,-3.7638021,-3.1017482)"
   id="g1610">
		<path
   id="path1612"
   style="fill:#ef8737;fill-opacity:1;stroke:none;stroke-opacity:1"
   d="M 31.324219,124.99902 C 43.579102,85.77832 62.362793,49.44043 86.402832,17.259766 C 119.50439,26.392578 154.37061,31.272461 190.37695,31.272461 C 228.4375,31.272461 265.22461,25.820801 300,15.654785 C 334.77539,25.820801 371.5625,31.272461 409.62305,31.272461 C 445.62891,31.272461 480.49609,26.392578 513.59766,17.259766 C 537.63672,49.44043 556.4209,85.77832 568.67578,124.99902 L 31.324219,124.99902 L 31.324219,124.99902 z " />
	</g>




<path
   style="font-size:373.12530518px;font-style:normal;font-variant:normal;font-weight:normal;font-stretch:normal;text-align:center;line-height:125%;writing-mode:lr-tb;text-anchor:middle;fill:#ef8737;fill-opacity:1;font-family:Roadgeek 2005 Series D"
   d="M 275.43401,266.06253 C 275.43382,283.19803 273.1356,300.27082 268.53938,317.28097 C 263.94278,334.29136 257.4233,350.61956 248.98093,366.2656 C 240.53822,381.91179 230.35829,396.43817 218.44111,409.84476 C 206.52364,423.25143 193.36154,434.92255 178.95475,444.85814 L 159.95902,411.33396 C 167.40868,405.37718 174.05131,399.60415 179.88692,394.01485 C 185.72232,388.42564 190.99892,382.65071 195.7167,376.69004 C 200.43425,370.7295 204.78057,364.39755 208.75566,357.69415 C 212.7305,350.99091 216.57852,343.53921 220.29975,335.33902 C 213.09996,336.58201 207.57517,337.45166 203.72538,337.94796 C 199.87532,338.44446 195.46837,338.69266 190.50452,338.69256 C 178.83339,338.69266 167.84445,336.70705 157.53765,332.73575 C 147.2307,328.76464 138.22735,323.36485 130.52755,316.53637 C 122.82766,309.70813 116.74396,301.63687 112.27641,292.32257 C 107.80881,283.00857 105.57502,273.13737 105.57504,262.70898 C 105.57502,252.03084 107.80881,242.0346 112.27641,232.72024 C 116.74396,223.40628 122.76514,215.33502 130.33998,208.50644 C 137.91472,201.67831 146.85556,196.27663 157.1625,192.30138 C 167.46931,188.32662 178.5833,186.33912 190.50452,186.33886 C 202.42552,186.33912 213.60015,188.38914 224.02841,192.48895 C 234.45641,196.58925 243.45787,202.1766 251.03283,209.25104 C 258.60745,216.32593 264.56801,224.70603 268.91452,234.39133 C 273.26064,244.07703 275.43382,254.63411 275.43401,266.06253 L 275.43401,266.06253 z M 235.94196,262.70898 C 235.9418,257.98765 234.70082,253.39121 232.21898,248.91962 C 229.73684,244.44841 226.44774,240.59845 222.35165,237.36974 C 218.25529,234.14144 213.4751,231.53438 208.01106,229.54856 C 202.54678,227.56318 196.71128,226.57038 190.50452,226.57016 C 184.29756,226.57038 178.52456,227.50254 173.18554,229.36667 C 167.84635,231.23123 163.12678,233.77766 159.02684,237.00596 C 154.92675,240.23467 151.69828,244.08273 149.34141,248.55015 C 146.98441,253.01795 145.80593,257.73756 145.80599,262.70898 C 145.80593,267.67317 146.98441,272.32834 149.34141,276.67454 C 151.69828,281.02105 154.92675,284.80849 159.02684,288.03684 C 163.12678,291.26549 167.84635,293.81002 173.18554,295.67043 C 178.52456,297.53114 184.29756,298.46142 190.50452,298.46128 C 196.71128,298.46142 202.60929,297.53114 208.19864,295.67043 C 213.78771,293.81002 218.63043,291.26549 222.7268,288.03684 C 226.82288,284.80849 230.04946,281.02105 232.40656,276.67454 C 234.76334,272.32834 235.9418,267.67317 235.94196,262.70898 L 235.94196,262.70898 z M 494.42496,348.37809 C 494.42477,362.285 491.75522,375.07585 486.4163,386.7507 C 481.07699,398.42567 473.56471,408.60758 463.87946,417.29647 C 454.19386,425.98542 442.70852,432.75125 429.42339,437.59401 C 416.13801,442.43677 401.54923,444.85814 385.65703,444.85814 C 374.72863,444.85814 363.98787,443.61713 353.43476,441.13513 C 342.88152,438.65312 333.25862,435.17642 324.566,430.70501 L 343.93689,395.69163 C 349.15091,398.41999 355.97921,400.59126 364.42182,402.20548 C 372.8643,403.81977 381.67819,404.6269 390.86352,404.62686 C 399.80616,404.6269 408.18808,403.20021 416.00928,400.34681 C 423.83026,397.4935 430.66046,393.58291 436.4999,388.61505 C 442.33906,383.64731 446.87105,377.74922 450.09589,370.92079 C 453.32043,364.0925 454.93278,356.57828 454.93293,348.37809 C 454.93278,342.17127 453.75431,336.46076 451.39752,331.24653 C 449.04043,326.03254 445.81384,321.43798 441.71777,317.46285 C 437.62139,313.48798 432.90372,310.38262 427.56475,308.14679 C 422.2255,305.91122 416.44873,304.79338 410.2344,304.79325 C 405.77051,304.79338 401.86185,305.16662 398.50843,305.91299 C 395.1548,306.65962 391.98696,308.02567 389.00487,310.01114 C 386.02261,311.99688 383.04233,314.66646 380.06403,318.0199 C 377.08557,321.37356 373.73204,325.6574 370.00346,330.87139 L 330.52278,319.69667 L 336.85469,190.80649 L 480.27195,190.80649 L 480.27195,230.29886 L 375.22131,230.29886 L 372.61807,271.26907 C 381.80324,268.54093 389.00289,266.68036 394.21705,265.68739 C 399.43101,264.69475 405.14527,264.19835 411.35982,264.19818 C 422.78064,264.19835 433.51949,266.43216 443.57642,270.8996 C 453.63305,275.36739 462.44884,281.45114 470.0238,289.15089 C 477.59842,296.85097 483.55897,305.79186 487.90548,315.97365 C 492.25161,326.15569 494.42477,336.95716 494.42496,348.37809 L 494.42496,348.37809 z "
   id="text5085" />
<path
   style="font-size:93.21589661px;font-style:normal;font-variant:normal;font-weight:normal;font-stretch:normal;text-align:center;line-height:125%;writing-mode:lr-tb;text-anchor:middle;fill:#341648;fill-opacity:1;font-family:Roadgeek 2005 Series C"
   d="M 108.86859,112.81165 L 108.86859,50.416161 L 117.60967,50.416161 L 117.60967,112.81165 L 108.86859,112.81165 z M 159.56965,112.81165 L 140.31942,70.997717 L 140.31942,112.81165 L 131.39104,112.81165 L 131.39104,50.416161 L 140.31942,50.416161 L 157.42977,87.853449 L 157.42977,50.416161 L 166.35816,50.416161 L 166.35816,112.81165 L 159.56965,112.81165 z M 195.41654,58.706192 L 195.41654,112.81165 L 186.39735,112.81165 L 186.39735,58.706192 L 175.05098,58.706192 L 175.05098,50.416161 L 206.7629,50.416161 L 206.7629,58.706192 L 195.41654,58.706192 z M 215.30532,112.81165 L 215.30532,50.416161 L 244.59927,50.416161 L 244.59927,59.172274 L 224.2337,59.172274 L 224.2337,74.908269 L 237.16084,74.908269 L 237.16084,83.476813 L 224.2337,83.476813 L 224.2337,104.05837 L 247.01726,104.05837 L 247.01726,112.81165 L 215.30532,112.81165 z M 283.20473,112.81165 L 274.92624,83.476813 L 266.37247,83.476813 L 266.37247,112.81165 L 257.4441,112.81165 L 257.4441,50.416161 L 276.04442,50.416161 C 278.46238,50.416224 280.67885,50.819784 282.69389,51.62684 C 284.70884,52.434021 286.44475,53.551862 287.90163,54.980368 C 289.35844,56.408988 290.47425,58.162956 291.24907,60.242277 C 292.02379,62.321703 292.41119,64.60333 292.41123,67.087165 C 292.41119,70.812085 291.66716,73.978511 290.17914,76.586455 C 288.69102,79.19447 286.45894,81.056433 283.48285,82.172347 L 292.41123,112.81165 L 283.20473,112.81165 z M 283.67015,67.087165 C 283.67012,64.665853 282.92609,62.741367 281.43805,61.313699 C 279.94996,59.886136 277.99694,59.172328 275.579,59.172274 L 266.37247,59.172274 L 266.37247,74.908269 L 275.579,74.908269 C 278.18236,74.908307 280.18173,74.240918 281.57712,72.906101 C 282.97244,71.571363 283.67012,69.631721 283.67015,67.087165 L 283.67015,67.087165 z M 334.56419,95.768339 C 334.56416,98.31476 334.11481,100.6897 333.21614,102.89316 C 332.31739,105.09665 331.07766,107.00549 329.49693,108.61973 C 327.91613,110.23398 326.08704,111.52233 324.00964,112.48482 C 321.93219,113.4473 319.68449,113.92853 317.26652,113.92853 C 314.53824,113.92853 312.08951,113.40088 309.92033,112.34556 C 307.75114,111.29024 305.92252,109.86263 304.43447,108.0627 C 302.9464,106.26279 301.79937,104.18295 300.99337,101.82315 C 300.18737,99.463388 299.78437,97.011244 299.78438,94.466716 L 308.52546,94.466716 C 308.52544,95.770251 308.69573,97.058136 309.0363,98.330376 C 309.37684,99.602646 309.90376,100.75127 310.61707,101.77627 C 311.33035,102.80129 312.22952,103.62404 313.3146,104.24452 C 314.39964,104.86503 315.71694,105.17527 317.26652,105.17526 C 318.44523,105.17527 319.57711,104.92707 320.66221,104.43067 C 321.74724,103.93429 322.67716,103.25127 323.45197,102.38161 C 324.22672,101.51197 324.84634,100.50307 325.31087,99.354907 C 325.77533,98.206766 326.00757,97.011244 326.0076,95.768339 C 326.00757,93.968443 325.63579,92.37031 324.89226,90.973934 C 324.14867,89.577602 322.84697,88.165144 320.98716,86.736554 C 320.67685,86.425859 320.55292,86.254867 320.61538,86.223579 C 320.6778,86.192343 320.49191,86.021825 320.05771,85.712023 C 319.62347,85.402277 318.70868,84.796937 317.31335,83.896004 C 315.91798,82.995129 313.63953,81.459044 310.478,79.287747 C 307.93703,77.548497 306.03083,75.514594 304.75942,73.186035 C 303.48797,70.857556 302.85226,68.296942 302.85226,65.504186 C 302.85226,63.268552 303.25526,61.173074 304.06128,59.217745 C 304.86725,57.262525 305.99866,55.539819 307.45551,54.049621 C 308.91235,52.559541 310.60192,51.395283 312.52421,50.556838 C 314.44647,49.718521 316.52295,49.29933 318.75365,49.299267 C 320.98618,49.29933 323.04799,49.70289 324.93908,50.509945 C 326.83013,51.317127 328.47286,52.434967 329.86729,53.863473 C 331.26166,55.292095 332.37747,56.999643 333.21474,58.986126 C 334.0519,60.972715 334.50173,63.1454 334.56419,65.504186 L 326.0076,65.504186 C 325.88459,63.331075 325.14102,61.592738 323.77692,60.289169 C 322.41275,58.985706 320.73833,58.333948 318.75365,58.333894 C 316.70836,58.333948 314.97291,59.016967 313.54731,60.382954 C 312.12167,61.749046 311.40886,63.456122 311.40887,65.504186 C 311.40886,67.055948 311.81186,68.359465 312.61787,69.41474 C 313.42384,70.4701 314.97339,71.649518 317.26652,72.952995 C 323.28119,76.429707 327.6678,79.968432 330.42638,83.569177 C 333.1849,87.16998 334.56416,91.236364 334.56419,95.768339 L 334.56419,95.768339 z M 360.52064,58.706192 L 360.52064,112.81165 L 351.50144,112.81165 L 351.50144,58.706192 L 340.15508,58.706192 L 340.15508,50.416161 L 371.867,50.416161 L 371.867,58.706192 L 360.52064,58.706192 z M 406.44816,112.81165 L 402.07763,95.768339 L 388.68506,95.768339 L 384.59548,112.81165 L 375.57345,112.81165 L 391.10305,50.416161 L 399.84695,50.416161 L 415.37654,112.81165 L 406.44816,112.81165 z M 395.2891,69.042441 L 390.91856,87.015068 L 399.84695,87.015068 L 395.2891,69.042441 z M 439.53084,58.706192 L 439.53084,112.81165 L 430.51165,112.81165 L 430.51165,58.706192 L 419.16529,58.706192 L 419.16529,50.416161 L 450.87721,50.416161 L 450.87721,58.706192 L 439.53084,58.706192 z M 459.41964,112.81165 L 459.41964,50.416161 L 488.71358,50.416161 L 488.71358,59.172274 L 468.34802,59.172274 L 468.34802,74.908269 L 481.27515,74.908269 L 481.27515,83.476813 L 468.34802,83.476813 L 468.34802,104.05837 L 491.13157,104.05837 L 491.13157,112.81165 L 459.41964,112.81165 z "
   id="text6060" />
</svg>